<svg width="144" height="172" viewBox="0 0 144 172" fill="none" xmlns="http://www.w3.org/2000/svg">
<path id="payhere_icon" fill-rule="evenodd" clip-rule="evenodd" d="M3.9 0.00758224H47.923C49.533 0.00758224 50.909 0.926582 51.526 2.41458C52.142 3.90358 51.82 5.52558 50.68 6.66458L6.657 50.6886C5.518 51.8276 3.896 52.1496 2.407 51.5336C0.919 50.9176 0 49.5416 0 47.9306V3.90758C0 1.75958 1.752 0.00758224 3.9 0.00758224ZM73.281 0.00458224C81.968 -0.0124178 89.333 -0.0984178 98.099 2.40058C124.514 9.92758 144 34.3426 144 63.0886C144 97.7836 115.613 126.169 80.92 126.169H35.632L63.08 135.167V167.835C63.08 169.983 61.328 171.735 59.181 171.735H3.9C1.752 171.735 0 169.983 0 167.835V73.2956C0 72.2206 0.383 71.2966 1.142 70.5376L70.532 1.14758C71.289 0.390582 72.21 0.00758224 73.281 0.00458224Z" fill="#004DC9"/>
</svg>
