<?xml version="1.0" encoding="UTF-8"?>
<svg width="68px" height="80px" viewBox="0 0 68 80" version="1.1" xmlns="http://www.w3.org/2000/svg" xmlns:xlink="http://www.w3.org/1999/xlink">
    <!-- Generator: Sketch 53.2 (72643) - https://sketchapp.com -->
    <title>payhere_icon 2</title>
    <desc>Created with Sketch.</desc>
    <g id="Logos" stroke="none" stroke-width="1" fill="none" fill-rule="evenodd">
        <g id="payhere_icon-2" fill="#FFFFFF">
            <path d="M1.81675697,0.00353207412 L22.3242165,0.00353207412 C23.0742111,0.00353207412 23.7152002,0.431634551 24.0026205,1.12479721 C24.2895749,1.81842571 24.139576,2.57401028 23.608524,3.10459648 L3.1010644,23.6125219 C2.5704782,24.1431081 1.81489363,24.293107 1.12126514,24.0061525 C0.428102477,23.7191981 7.10542736e-15,23.078209 7.10542736e-15,22.3277486 L7.10542736e-15,1.82028905 C7.10542736e-15,0.819675207 0.816143133,0.00353207412 1.81675697,0.00353207412 Z M34.1368635,0.00213456875 C38.1835732,-0.00578462831 41.6144489,-0.0458464488 45.6979596,1.11827552 C58.0029943,4.62461648 67.0802575,15.997981 67.0802575,29.3888774 C67.0802575,45.5510269 53.8565959,58.7737568 37.695378,58.7737568 L16.5986371,58.7737568 L29.3848795,62.9653413 L29.3848795,78.183243 C29.3848795,79.1838569 28.5687363,80 27.5685883,80 L1.81675697,80 C0.816143133,80 7.10542736e-15,79.1838569 7.10542736e-15,78.183243 L7.10542736e-15,34.1436565 C7.10542736e-15,33.6428837 0.178414852,33.2124521 0.531983709,32.8588832 L32.8562828,0.534584113 C33.20892,0.181946926 33.6379541,0.00353207412 34.1368635,0.00213456875 L34.1368635,0.00213456875 Z" id="payhere_icon"></path>
        </g>
    </g>
</svg>