<svg width="178" height="85" viewBox="0 0 178 85" fill="none" xmlns="http://www.w3.org/2000/svg">
<path d="M1.95199 48C1.48266 48 1.09866 47.8507 0.79999 47.552C0.501323 47.2533 0.35199 46.8693 0.35199 46.4V4.864C0.35199 4.39467 0.501323 4.01067 0.79999 3.712C1.09866 3.37067 1.48266 3.2 1.95199 3.2H10.72C11.1893 3.2 11.5733 3.37067 11.872 3.712C12.2133 4.01067 12.384 4.39467 12.384 4.864V20.032H27.488V4.864C27.488 4.39467 27.6373 4.01067 27.936 3.712C28.2773 3.37067 28.6827 3.2 29.152 3.2H37.856C38.3253 3.2 38.7093 3.37067 39.008 3.712C39.3493 4.01067 39.52 4.39467 39.52 4.864V46.4C39.52 46.8693 39.3493 47.2533 39.008 47.552C38.7093 47.8507 38.3253 48 37.856 48H29.152C28.6827 48 28.2773 47.8507 27.936 47.552C27.6373 47.2533 27.488 46.8693 27.488 46.4V30.72H12.384V46.4C12.384 46.8693 12.2133 47.2533 11.872 47.552C11.5733 47.8507 11.1893 48 10.72 48H1.95199Z" fill="#8B5CF6"/>
<path d="M57.571 48.64C55.3097 48.64 53.2403 48.2133 51.363 47.36C49.5283 46.464 48.0777 45.248 47.011 43.712C45.987 42.176 45.475 40.4907 45.475 38.656C45.475 35.7547 46.6697 33.408 49.059 31.616C51.491 29.7813 54.819 28.5227 59.043 27.84L66.979 26.624V25.856C66.979 24.2773 66.659 23.1253 66.019 22.4C65.379 21.6747 64.291 21.312 62.755 21.312C61.9017 21.312 61.1763 21.4613 60.579 21.76C60.0243 22.0587 59.3843 22.5067 58.659 23.104C58.1043 23.5733 57.6137 23.9147 57.187 24.128C57.0163 24.4267 56.803 24.576 56.547 24.576H49.123C48.6963 24.576 48.3337 24.448 48.035 24.192C47.779 23.8933 47.6723 23.552 47.715 23.168C47.7577 22.016 48.3337 20.736 49.443 19.328C50.5523 17.8773 52.2377 16.64 54.499 15.616C56.7603 14.592 59.555 14.08 62.883 14.08C68.1737 14.08 72.099 15.2533 74.659 17.6C77.219 19.904 78.499 23.04 78.499 27.008V46.4C78.499 46.8267 78.3497 47.2107 78.051 47.552C77.7523 47.8507 77.3683 48 76.899 48H69.027C68.6003 48 68.2163 47.8507 67.875 47.552C67.5763 47.2107 67.427 46.8267 67.427 46.4V44.16C66.4883 45.4827 65.187 46.5707 63.523 47.424C61.859 48.2347 59.875 48.64 57.571 48.64ZM60.771 41.088C62.6483 41.088 64.163 40.4693 65.315 39.232C66.5097 37.9947 67.107 36.2027 67.107 33.856V33.088L61.795 33.984C58.211 34.6667 56.419 35.9467 56.419 37.824C56.419 38.8053 56.8243 39.5947 57.635 40.192C58.4883 40.7893 59.5337 41.088 60.771 41.088Z" fill="#8B5CF6"/>
<path d="M87.1245 60.16C86.6552 60.16 86.2498 60.0107 85.9085 59.712C85.6098 59.4133 85.4605 59.0293 85.4605 58.56V16.32C85.4605 15.8507 85.6098 15.4667 85.9085 15.168C86.2498 14.8693 86.6552 14.72 87.1245 14.72H94.7405C95.2098 14.72 95.5938 14.8693 95.8925 15.168C96.1912 15.4667 96.3405 15.8507 96.3405 16.32V18.624C98.6445 15.5947 101.951 14.08 106.26 14.08C110.399 14.08 113.642 15.3813 115.988 17.984C118.378 20.544 119.658 24.2133 119.828 28.992C119.871 29.5467 119.892 30.336 119.892 31.36C119.892 32.384 119.871 33.1947 119.828 33.792C119.658 38.4 118.378 42.0267 115.988 44.672C113.599 47.3173 110.356 48.64 106.26 48.64C102.122 48.64 99.0285 47.232 96.9805 44.416V58.56C96.9805 59.0293 96.8312 59.4133 96.5325 59.712C96.2338 60.0107 95.8498 60.16 95.3805 60.16H87.1245ZM102.548 39.744C104.468 39.744 105.834 39.1893 106.644 38.08C107.498 36.928 107.988 35.3493 108.116 33.344C108.159 32.9173 108.18 32.256 108.18 31.36C108.18 30.464 108.159 29.8027 108.116 29.376C107.988 27.3707 107.498 25.8133 106.644 24.704C105.834 23.552 104.468 22.976 102.548 22.976C100.714 22.976 99.3485 23.5733 98.4525 24.768C97.5565 25.92 97.0658 27.392 96.9805 29.184C96.9378 29.7387 96.9165 30.5493 96.9165 31.616C96.9165 32.64 96.9378 33.4293 96.9805 33.984C97.0658 35.648 97.5565 37.0347 98.4525 38.144C99.3912 39.2107 100.756 39.744 102.548 39.744Z" fill="#8B5CF6"/>
<path d="M127.687 60.16C127.218 60.16 126.812 60.0107 126.471 59.712C126.172 59.4133 126.023 59.0293 126.023 58.56V16.32C126.023 15.8507 126.172 15.4667 126.471 15.168C126.812 14.8693 127.218 14.72 127.687 14.72H135.303C135.772 14.72 136.156 14.8693 136.455 15.168C136.754 15.4667 136.903 15.8507 136.903 16.32V18.624C139.207 15.5947 142.514 14.08 146.823 14.08C150.962 14.08 154.204 15.3813 156.551 17.984C158.94 20.544 160.22 24.2133 160.391 28.992C160.434 29.5467 160.455 30.336 160.455 31.36C160.455 32.384 160.434 33.1947 160.391 33.792C160.22 38.4 158.94 42.0267 156.551 44.672C154.162 47.3173 150.919 48.64 146.823 48.64C142.684 48.64 139.591 47.232 137.543 44.416V58.56C137.543 59.0293 137.394 59.4133 137.095 59.712C136.796 60.0107 136.412 60.16 135.943 60.16H127.687ZM143.111 39.744C145.031 39.744 146.396 39.1893 147.207 38.08C148.06 36.928 148.551 35.3493 148.679 33.344C148.722 32.9173 148.743 32.256 148.743 31.36C148.743 30.464 148.722 29.8027 148.679 29.376C148.551 27.3707 148.06 25.8133 147.207 24.704C146.396 23.552 145.031 22.976 143.111 22.976C141.276 22.976 139.911 23.5733 139.015 24.768C138.119 25.92 137.628 27.392 137.543 29.184C137.5 29.7387 137.479 30.5493 137.479 31.616C137.479 32.64 137.5 33.4293 137.543 33.984C137.628 35.648 138.119 37.0347 139.015 38.144C139.954 39.2107 141.319 39.744 143.111 39.744Z" fill="#8B5CF6"/>
<path d="M168.185 10.112C167.716 10.112 167.332 9.96267 167.033 9.664C166.735 9.32267 166.585 8.91733 166.585 8.448V2.496C166.585 2.02667 166.735 1.64267 167.033 1.344C167.375 1.00267 167.759 0.832001 168.185 0.832001H176.185C176.655 0.832001 177.039 1.00267 177.337 1.344C177.679 1.64267 177.849 2.02667 177.849 2.496V8.448C177.849 8.91733 177.679 9.32267 177.337 9.664C177.039 9.96267 176.655 10.112 176.185 10.112H168.185ZM168.185 48C167.759 48 167.375 47.8507 167.033 47.552C166.735 47.2107 166.585 46.8267 166.585 46.4V16.32C166.585 15.8507 166.735 15.4667 167.033 15.168C167.375 14.8693 167.759 14.72 168.185 14.72H176.185C176.655 14.72 177.039 14.8693 177.337 15.168C177.679 15.4667 177.849 15.8507 177.849 16.32V46.4C177.849 46.8693 177.679 47.2533 177.337 47.552C177.039 47.8507 176.655 48 176.185 48H168.185Z" fill="#8B5CF6"/>
<path d="M68 61C81.3333 75.3333 117.6 95.4 156 61" stroke="#FFE299" stroke-width="10" stroke-linecap="round" stroke-linejoin="round"/>
</svg>
